HIERARCHY
ROOT ui
{
	 OFFSET 0 0 0
	 CHANNELS 3 XPosition YPosition Z Position
	 EndSite
	 {
	 OFFSET 0 -1 0
	 }
}
ROOT li
{
	 OFFSET 0 0 0
	 CHANNELS 3 XPosition YPosition Z Position
	 EndSite
	 {
	 OFFSET 0 -1 0
	 }
}
ROOT ul
{
	 OFFSET 0 0 0
	 CHANNELS 3 XPosition YPosition Z Position
	 EndSite
	 {
	 OFFSET 0 -1 0
	 }
}
ROOT ll
{
	 OFFSET 0 0 0
	 CHANNELS 3 XPosition YPosition Z Position
	 EndSite
	 {
	 OFFSET 0 -1 0
	 }
}
ROOT tt
{
	 OFFSET 0 0 0
	 CHANNELS 3 XPosition YPosition Z Position
	 EndSite
	 {
	 OFFSET 0 -1 0
	 }
}
ROOT tb
{
	 OFFSET 0 0 0
	 CHANNELS 3 XPosition YPosition Z Position
	 EndSite
	 {
	 OFFSET 0 -1 0
	 }
}
ROOT td
{
	 OFFSET 0 0 0
	 CHANNELS 3 XPosition YPosition Z Position
	 EndSite
	 {
	 OFFSET 0 -1 0
	 }
}
ROOT v
{
	 OFFSET 0 0 0
	 CHANNELS 3 XPosition YPosition Z Position
	 EndSite
	 {
	 OFFSET 0 -1 0
	 }
}
ROOT bn
{
	 OFFSET 0 0 0
	 CHANNELS 3 XPosition YPosition Z Position
	 EndSite
	 {
	 OFFSET 0 -1 0
	 }
}
MOTION
Frames: 18
Frame Time: 0.002
-0.01808866882324219	8.103979825973511E-4	0		0.4594052124023438	-2.31464111328125	0		-1.0105601196289062	-0.05264485168457031	0		-0.7951799926757812	-2.326127685546875	0		1.3779100341796875	-0.5430607299804687	0		3.050211669921875	0.19912014770507813	0		4.56893310546875	0.21360382080078125	0		5.61952392578125	0.007671031951904297	0		-0.011041287422180177	5.94218505859375	0		
0.05226459884643555	-0.00465879487991333	0		0.46517306518554685	-2.322544921875	0		-1.0082008056640626	-0.05779176330566406	0		-0.8731406860351563	-2.3214072265625	0		1.3744866943359375	-0.5425701904296875	0		3.062605224609375	0.19860321044921875	0		4.56603466796875	0.20074818420410157	0		5.615984375	0.009055880546569825	0		-0.0025649549961090086	5.9540869140625	0		
0.05168209075927734	-0.0015080289840698241	0		0.44485693359375	-2.327863037109375	0		-1.081732177734375	-0.05222340774536133	0		-0.8352929077148438	-2.320288818359375	0		1.3740338134765624	-0.5381559448242188	0		3.054073486328125	0.20653189086914062	0		4.548638671875	0.2151760711669922	0		5.621263671875	0.007183794021606445	0		-0.006424592018127441	5.9532724609375	0		
0.04797772216796875	-0.001284950017929077	0		0.4628048095703125	-2.318033447265625	0		-1.0813394775390626	-0.04830230331420898	0		-0.873443359375	-2.31445849609375	0		1.37658349609375	-0.5308195190429688	0		3.055173828125	0.20020883178710938	0		4.5448935546875	0.21624212646484375	0		5.61277978515625	0.018559141159057616	0		-0.01124522304534912	5.953484375	0		
-0.03269459533691406	0.0016304399967193603	0		0.4574539489746094	-2.31969140625	0		-1.0151707153320313	-0.054810791015625	0		-0.84186962890625	-2.320162109375	0		1.3698980712890625	-0.5332954711914063	0		3.059687255859375	0.21278146362304687	0		4.558984375	0.20986045837402345	0		5.6090634765625	0.019757884979248047	0		-0.016000114440917968	5.95369873046875	0		
0.045472766876220705	-0.005942844867706299	0		0.4432811584472656	-2.3131611328125	0		-1.1027586669921876	-0.049927444458007814	0		-0.8841664428710938	-2.319230712890625	0		1.36012939453125	-0.5407229614257812	0		3.055970458984375	0.21349510192871093	0		4.5552685546875	0.21081707763671875	0		5.60537841796875	0.02088467788696289	0		-0.03488351821899414	5.9432216796875	0		
-0.0399920539855957	0.0020549750328063966	0		0.44677066040039065	-2.324026611328125	0		-1.0306002197265625	-0.06151679611206055	0		-0.8166044311523437	-2.327679931640625	0		1.3565950927734376	-0.54030322265625	0		3.044066162109375	0.20234307861328124	0		4.5516220703125	0.2117120819091797	0		5.59760986328125	0.015024109840393067	0		-0.1575927734375	5.93499072265625	0		
0.03345625686645508	-3.906530141830444E-4	0		0.42851211547851564	-2.326427001953125	0		-1.0999166259765625	-0.052022525787353516	0		-0.8885703125	-2.3160927734375	0		1.362390625	-0.5290997924804688	0		3.0245517578125	0.2043150177001953	0		4.53506298828125	0.21182403564453126	0		5.59405224609375	0.013998257637023925	0		-0.028487350463867186	5.9533193359375	0		
0.042121036529541016	0.0015696250200271605	0		0.45749984741210936	-2.322846435546875	0		-1.021176025390625	-0.047699119567871096	0		-0.8147011108398438	-2.318634765625	0		1.37290576171875	-0.537017333984375	0		3.065483642578125	0.21995382690429688	0		4.55365673828125	0.21212197875976563	0		5.6096494140625	0.013490233421325683	0		-0.031613080978393555	5.95250830078125	0		
0.03093501091003418	0.0029537720680236816	0		0.4436767883300781	-2.31635400390625	0		-1.102404541015625	-0.04794184875488281	0		-0.8946160888671875	-2.315876708984375	0		1.3559293212890624	-0.528360595703125	0		3.026152099609375	0.21626797485351562	0		4.54557421875	0.21993760681152344	0		5.5916552734375	0.024634222030639648	0		-0.03743432235717774	5.95475634765625	0		
0.028744237899780273	-0.004858320236206055	0		0.44660693359375	-2.329230224609375	0		-1.03960498046875	-0.05724205017089844	0		-0.8265946655273437	-2.325262451171875	0		1.3468135986328125	-0.5348944091796874	0		3.030854248046875	0.20460289001464843	0		4.53840576171875	0.21467466735839844	0		5.58448486328125	0.018474323272705078	0		-0.041040382385253905	5.95495654296875	0		
0.02592545509338379	-0.004658277988433838	0		0.43418194580078123	-2.319784912109375	0		-1.116381591796875	-0.05457402801513672	0		-0.8671824951171875	-2.323335205078125	0		1.34095703125	-0.5385158081054687	0		3.012041748046875	0.20640077209472657	0		4.51357275390625	0.21573016357421876	0		5.585810546875	0.026070623397827147	0		-0.05860533905029297	5.9444482421875	0		
0.018420679092407227	6.375769972801208E-4	0		0.441554443359375	-2.3287705078125	0		-1.1149266357421874	-0.051553150177001954	0		-0.9045265502929688	-2.31847607421875	0		1.34455322265625	-0.5303524780273438	0		3.03653515625	0.21224931335449218	0		4.53777099609375	0.20769517517089844	0		5.583197265625	0.026682321548461913	0		-0.17987066650390626	5.93611669921875	0		
0.02497331619262695	-0.0013673570156097412	0		0.4164531555175781	-2.32107958984375	0		-1.1132437744140624	-0.04752785110473633	0		-0.9026763305664063	-2.3134375	0		1.3452462158203125	-0.5271471557617188	0		3.015226806640625	0.21802450561523437	0		4.51267333984375	0.22364898681640624	0		5.58558154296875	0.017122447967529295	0		-0.05022558212280273	5.95551611328125	0		
0.013816014289855957	9.958900213241576E-4	0		0.4294585266113281	-2.317197021484375	0		-1.0455621337890626	-0.053875988006591796	0		-0.9067930297851563	-2.31527001953125	0		1.34001171875	-0.52983642578125	0		3.05275439453125	0.20552932739257812	0		4.5324345703125	0.22260899353027344	0		5.57858935546875	0.027702672958374024	0		-0.05275051498413086	5.9556875	0		
0.011806578636169433	0.0011631439924240112	0		0.4166806945800781	-2.310782958984375	0		-1.1255938720703125	-0.05412923812866211	0		-0.8378807373046875	-2.324623046875	0		1.334943359375	-0.5335462036132812	0		3.0269912109375	0.2183309326171875	0		4.526291015625	0.21706388854980468	0		5.5765791015625	0.02811981201171875	0		-0.06925370025634765	5.945146484375	0		
0.014869050025939941	-0.0037802639007568357	0		0.421701171875	-2.321752197265625	0		-1.05754345703125	-0.060466827392578124	0		-0.916591796875	-2.321891357421875	0		1.330047607421875	-0.5372755737304687	0		3.0120498046875	0.21387092590332032	0		4.52445068359375	0.2173861846923828	0		5.57474560546875	0.028479978561401366	0		-0.07130028533935547	5.945302734375	0		
-0.06866050720214843	0.004075551986694336	0		0.4050340881347656	-2.324276123046875	0		-1.1250333251953124	-0.050973735809326175	0		-0.914117431640625	-2.317848876953125	0		1.348365234375	-0.5385025024414063	0		2.999249267578125	0.2083360595703125	0		4.50975439453125	0.21693362426757812	0		5.57786376953125	0.018684154510498048	0		-0.19036094665527345	5.9358876953125	0		
